<?xml version="1.0" encoding="UTF-8"?>
<!-- Generated by Pixelmator Pro 3.6.17 -->
<svg width="512" height="512" viewBox="0 0 512 512" xmlns="http://www.w3.org/2000/svg">
    <path id="background" fill="#222222" fill-rule="evenodd" stroke="none" d="M 508.509094 256 C 508.509094 116.543091 395.456909 3.490906 256 3.490906 C 116.543076 3.490906 3.490909 116.543091 3.490909 256 C 3.490909 395.456909 116.543076 508.509094 256 508.509094 C 395.456909 508.509094 508.509094 395.456909 508.509094 256 Z"/>
    <g id="roundel">
        <path id="Path" fill="#fefefe" stroke="none" d="M 57.406059 256.126343 C 57.406059 146.594421 146.198105 57.802429 255.728928 57.802429 C 365.255096 57.802429 454.051758 146.594421 454.051758 256.126343 C 454.051758 365.648315 365.255096 454.440552 255.728928 454.440552 C 146.198105 454.440552 57.406059 365.648315 57.406059 256.126343 Z M 255.728928 438.802917 C 356.619568 438.802917 438.414154 357.012573 438.414154 256.126343 C 438.414154 155.231201 356.619568 73.439972 255.728928 73.439972 C 154.834885 73.439972 73.043663 155.231201 73.043663 256.126343 C 73.043663 357.012573 154.834885 438.802917 255.728928 438.802917 Z"/>
        <path id="path1" fill="#ffffff" stroke="none" d="M 125.039825 176.942963 L 124.030602 176.856079 L 123.76622 179.314087 L 123.503151 180.762787 L 123.76622 181.202271 L 123.898949 182.124451 L 124.072929 182.781311 L 123.679329 184.230011 L 123.591118 185.413422 L 123.41494 186.555389 L 124.292747 187.740845 L 124.60038 188.880646 L 124.556938 189.846436 L 124.951859 190.986206 L 124.775681 191.647491 L 124.908211 192.787292 L 125.30201 193.840179 L 125.434746 194.235992 L 125.653282 195.071259 L 125.259445 195.641235 L 125.08239 195.858704 L 125.259445 195.991425 L 125.740372 196.298096 L 125.87291 196.341553 L 126.750717 196.911621 L 127.540352 198.31662 L 128.242859 199.76535 L 128.417969 200.24826 L 128.375641 200.861694 L 128.637589 201.037872 L 128.856293 201.873138 L 129.253204 202.484314 L 129.95488 202.706421 L 130.262466 203.189117 L 130.525726 203.541718 L 130.613937 204.329071 L 130.481201 204.724945 C 130.481201 204.724945 130.875885 205.338379 131.007538 205.381744 C 131.140274 205.427429 131.402466 205.777771 131.402466 205.777771 L 131.534988 205.951782 L 131.534988 206.480316 L 132.061569 207.929047 L 132.720627 208.322662 L 133.422058 208.544464 L 133.685333 208.805511 L 134.47496 208.588135 L 135.265488 208.366272 L 136.62619 209.462616 L 138.161774 209.684479 L 140.005402 210.430481 L 141.364822 211.616119 L 142.154419 212.886414 L 142.725555 213.369324 L 143.90451 215.37915 L 144.87677 215.479156 L 145.315125 216.310181 L 144.87677 217.056091 L 144.041489 217.232269 L 142.418839 217.232269 L 139.742142 217.232269 L 138.995056 217.452148 L 138.468491 219.424988 L 138.906845 220.042877 L 139.390854 220.83136 L 140.706833 221.227173 L 140.883011 221.75354 L 140.971222 222.719299 L 141.583557 223.20224 L 142.067322 223.245697 L 142.551331 223.685181 L 142.638458 224.211456 L 141.935913 225.438293 L 142.111008 226.143097 L 141.672653 227.282898 L 141.058105 227.504913 L 140.883011 228.601013 L 141.629196 229.432068 L 142.46225 229.127625 L 143.42807 227.983368 L 144.174011 227.457062 L 145.358582 227.678925 L 145.841461 228.074738 L 146.367798 229.040497 L 146.587463 230.532654 L 146.631104 231.276642 L 146.93782 231.363708 L 147.334732 231.363708 L 147.992722 228.248657 L 148.694107 227.108856 L 149.371704 227.644135 L 149.966644 227.852875 L 150.44957 228.818634 L 150.669388 229.871552 L 151.546997 230.880859 L 152.511688 230.750275 L 153.169678 230.045563 L 154.048599 228.992645 L 155.496231 228.031281 L 158.084686 228.248657 L 159.533432 228.992645 L 159.753052 229.741058 L 159.226685 230.706818 L 158.261993 231.363708 L 157.559235 232.107697 L 157.208008 233.469269 L 155.803818 234.391693 L 155.277481 235.270416 L 154.662949 236.014313 L 154.443329 236.675415 L 153.828781 237.77179 L 155.320938 237.902283 L 156.506577 238.428894 L 157.164551 240.534454 L 157.910507 241.239166 L 158.568497 241.765533 L 159.621399 241.983154 L 160.500137 242.77475 L 160.542648 244.354034 L 159.621399 245.232758 L 158.701233 245.933228 L 158.701233 247.294891 L 158.084686 248.304108 L 156.506577 249.444153 L 155.145828 249.970428 L 154.576065 251.462585 L 154.223709 252.867859 L 153.301331 254.577606 L 152.731308 258.179565 L 153.169678 259.058533 L 152.994614 260.855225 L 152.643341 263.661316 L 152.819519 264.631348 L 152.688995 265.244751 L 150.186493 266.384552 L 149.79158 266.911072 L 149.703613 268.799042 L 150.098297 269.547424 L 149.879791 270.156433 L 149.834106 270.948303 L 150.186493 271.870483 L 150.44957 272.44043 L 150.71283 273.623596 L 151.195755 275.294189 L 152.118134 276.568939 L 153.259003 277.2258 L 153.56572 277.926331 L 153.828781 278.452728 L 155.234039 277.70874 L 156.814407 277.617371 L 157.339615 277.486877 L 158.084686 277.182373 L 158.788361 276.26001 L 158.875214 275.33786 L 159.446304 275.028931 L 160.455566 274.985504 L 160.981903 275.690216 L 161.290848 275.907654 L 162.079361 275.381287 L 162.913528 273.976044 L 163.616287 273.802002 L 164.449326 273.88916 L 165.15184 274.111023 L 165.809814 273.275726 L 166.556015 272.662292 L 167.390182 272.61438 L 168.486526 273.053864 L 168.706146 273.976044 L 169.057419 275.120239 L 169.408661 276.742859 L 169.101074 277.486877 L 168.486526 278.148193 L 168.048172 279.418518 L 168.135254 280.075378 L 168.179825 280.60614 L 168.619263 281.045624 L 169.496872 281.524078 L 169.979797 282.359375 L 170.110336 282.929321 L 169.671967 284.203857 L 169.012863 285.169739 L 168.22435 285.648315 L 168.004715 286.353119 L 167.873108 287.671326 L 168.267792 288.723999 L 168.532181 290.085815 L 168.267792 291.486664 L 168.443085 292.32196 L 169.012863 293.418304 L 171.031586 297.633667 L 171.077225 298.773376 L 171.559036 299.913452 L 173.84079 304.085388 L 174.586975 304.959839 L 174.805481 305.577515 L 174.763153 307.987854 L 174.631546 309.745209 L 175.28949 310.228149 L 176.298752 309.875793 L 177.965958 309.084106 L 179.107956 308.953613 L 180.643784 309.175476 L 181.653 309.305969 L 182.004288 309.875793 L 182.224136 310.315186 L 182.267548 311.107117 L 188.587662 315.496674 L 190.210297 315.801086 L 192.625946 316.723267 L 197.232925 318.12854 L 198.111847 318.61145 L 198.198746 319.181458 L 198.505447 319.268311 L 198.990585 319.181458 L 200.830887 319.973114 L 201.840103 320.630005 L 205.440063 321.069458 L 206.799683 321.243408 L 208.422363 320.147278 L 210.61702 319.664368 L 214.21698 317.776184 L 215.491714 317.515106 L 216.588058 318.389587 L 219.089462 319.751251 L 220.844879 320.364685 L 221.984879 319.050964 L 223.126633 316.67981 L 224.136093 315.975098 L 225.582596 315.801086 L 227.516434 315.405151 L 229.225998 314.878784 L 230.631256 315.183289 L 232.693436 316.853851 L 242.699432 318.7854 L 244.939728 318.742035 L 248.93129 320.012329 L 251.652527 322.296326 L 256.829468 323.918945 L 258.982971 324.184509 L 259.992188 322.866272 L 263.281219 323.088135 L 264.203583 319.925171 L 265.345367 319.620667 L 266.441681 320.147278 L 266.968262 321.243408 L 268.327637 323.305542 L 270.085297 327.255859 L 269.909119 328.265076 L 270.609436 328.921936 L 270.831268 330.588257 L 270.389801 331.597565 L 269.119507 332.25882 L 270.785583 332.519714 L 271.270721 332.87207 L 271.312164 333.750977 L 270.785583 334.716827 L 270.48114 336.339478 L 269.55896 337.131317 L 269.384766 337.435822 L 269.950317 339.236877 L 269.822021 339.937195 L 269.426208 340.463562 L 269.07608 341.076965 L 269.119507 341.385895 L 268.59314 342.308289 L 268.023163 343.056458 L 267.670776 343.495972 L 267.013916 343.800476 L 265.826263 344.239929 L 264.908325 344.544373 L 264.949524 344.983612 L 264.908325 346.388977 L 264.769104 347.524414 L 264.159943 348.803436 L 264.027405 350.030365 L 264.116486 350.556641 L 264.142548 351.826965 L 263.896881 352.884094 L 263.633575 353.71936 L 263.93808 354.289368 L 264.642822 355.603088 L 264.995209 355.868622 L 266.309143 356.042542 L 267.977509 356.520996 L 268.810547 356.964722 L 269.600159 357.578156 L 270.128723 358.061005 L 270.872681 358.322083 L 272.454163 358.500488 L 273.902679 358.191589 L 274.474884 358.191589 L 276.493378 357.887085 C 276.493378 357.887085 278.512085 358.061005 278.642578 358.104675 C 278.773132 358.148132 280.178192 358.457031 280.178192 358.457031 L 281.537781 358.23526 L 283.075592 358.322083 L 283.954315 358.848694 L 284.828796 359.509796 C 284.828796 359.509796 287.19989 360.78009 287.373871 360.78009 C 287.552277 360.78009 290.976013 361.354553 290.976013 361.354553 L 292.115814 361.528473 L 294.308472 360.693176 L 295.844055 360.693176 L 297.162231 361.263 L 298.96109 362.185333 L 299.883453 362.141907 L 300.455475 361.219543 L 301.464935 360.12323 L 302.078369 359.727417 L 302.778687 359.375 L 304.845032 358.848694 L 306.069916 358.104675 L 307.518402 357.795776 L 308.660431 357.578156 L 309.276062 357.708649 L 310.065674 358.365753 L 310.985809 359.33136 L 311.335968 359.509796 L 311.953888 359.509796 L 312.876007 358.804993 L 313.354645 358.631042 L 313.972321 358.6745 L 314.411804 358.718109 L 315.025269 358.761536 L 316.384644 359.157349 L 317.307007 359.85791 L 317.966125 360.29715 L 318.535858 360.210266 L 319.192963 359.770874 L 319.852051 359.157349 L 320.378387 358.587616 L 321.037506 358.061005 L 322.003326 357.92627 L 322.879761 357.138916 L 323.364929 356.47757 L 324.021759 355.994629 L 325.029022 355.868622 L 325.513916 355.868622 L 326.786438 355.163818 L 327.445557 354.680908 L 328.409119 354.202301 L 329.418579 353.632477 L 330.033997 353.584656 L 330.912964 353.497498 L 331.656921 352.75351 L 332.400635 352.27066 L 333.281616 351.700867 L 334.071198 351.348511 L 334.684662 351.30481 L 335.563599 350.996155 L 336.220459 350.33905 L 336.925201 349.769226 L 337.582092 349.677917 L 338.721832 349.460327 L 339.994354 348.755615 L 341.401886 347.2677 L 342.058777 346.432312 L 343.59433 344.631256 L 345.436859 341.825378 L 346.269897 341.076965 L 346.49176 340.772461 L 346.622314 339.541382 L 345.919739 335.987122 L 346.052277 335.064697 L 346.269897 334.494965 L 346.97467 333.929382 L 347.897034 333.750977 L 349.080231 333.83786 L 349.519714 333.968445 L 349.959198 333.968445 L 351.231476 333.529114 L 352.108185 332.654724 L 352.32782 330.679626 L 352.195313 329.492004 L 352.32782 328.22168 L 353.291412 326.642426 L 354.872833 325.150024 L 356.101929 323.918945 L 356.058289 320.978088 L 357.06778 318.915955 L 357.681183 317.602234 L 359.834412 314.134766 L 362.157623 313.125549 L 363.736847 311.937927 L 364.485046 310.358643 L 365.229004 310.006287 L 366.764832 309.436523 L 367.865387 309.044922 L 369.048828 308.296509 L 369.840424 303.598206 L 369.488068 302.636658 L 368.391724 300.618164 L 367.247711 297.672791 L 367.643524 296.537354 L 369.268433 295.480194 L 370.058075 294.736206 L 371.023865 292.935364 L 372.385468 291.534271 L 373.394745 290.085815 L 376.949005 287.845276 L 379.581146 286.966553 L 379.670258 286.440002 L 378.880646 285.430725 L 378.528259 283.103271 L 379.798584 281.436951 L 379.231018 277.70874 L 379.757324 275.7771 L 381.467102 273.671509 L 382.478577 272.309875 L 383.004944 270.421692 L 382.695984 269.851929 L 381.906342 269.281982 L 380.457642 268.929535 L 379.581146 269.06012 L 378.263 268.799042 L 376.862152 268.446686 L 376.026886 267.350342 L 375.454651 266.515045 L 375.280701 264.805298 L 375.896362 261.251007 L 375.852905 259.66748 L 375.235016 258.266724 L 374.795563 255.369293 L 375.147919 254.403442 L 376.509766 252.954742 L 377.738647 252.515503 L 378.57193 252.210968 L 378.834991 249.666016 L 378.08902 248.743591 L 377.079559 247.643005 L 377.123199 246.768524 L 376.992645 246.285675 L 375.280701 245.189331 L 374.317108 243.697174 L 374.225769 241.282623 L 374.491089 240.669189 L 374.621582 240.186249 L 374.491089 239.790466 L 373.786285 239.394409 L 372.909851 239.307617 L 372.337585 239.43811 L 371.463348 239.26416 L 370.714905 239.042053 L 369.575165 238.689697 L 368.169891 237.98941 L 367.247711 237.375977 L 366.416687 236.410187 L 364.92453 234.391693 L 363.562927 233.164825 L 362.157623 232.285858 L 361.017853 232.155365 L 360.447845 232.372986 L 359.921539 232.372986 L 359.303864 232.329559 L 358.825195 232.063995 L 357.989929 231.102631 L 356.40863 229.784485 L 355.312317 228.074738 L 354.961975 225.3078 L 355.357971 223.511139 L 356.363007 222.193024 L 357.111206 219.951355 L 357.111206 218.461456 L 357.111206 217.452148 L 357.815948 216.090332 L 359.216766 214.421997 L 360.402191 213.984772 L 360.491516 213.545502 L 359.743134 212.492615 L 358.999146 209.727936 L 358.076996 206.040833 L 357.417908 202.266937 L 356.715393 200.907379 L 356.321564 200.554932 L 355.884338 199.939514 L 354.872833 195.332336 L 353.996368 194.149109 L 353.817993 191.995667 L 353.46759 190.022614 L 353.513458 188.487 L 353.95047 186.949005 L 354.914307 186.775085 L 355.22525 185.765778 L 355.136139 184.669434 L 355.179596 183.527466 L 355.399231 182.781311 L 355.619049 181.948181 L 355.795227 181.202271 L 355.266693 180.149384 L 353.556915 177.734802 L 351.625275 175.672699 L 350.39621 175.102936 L 347.105194 174.26767 L 345.173584 175.585785 L 344.383972 175.846863 L 343.681458 175.629242 L 342.761261 173.960907 L 342.365479 173.214752 L 341.70636 173.127869 L 341.22348 173.741058 L 340.610016 174.574341 L 340.040039 174.574341 L 339.383179 174.441589 L 338.943695 174.137085 L 338.284637 173.258209 L 337.934479 171.722626 L 337.669159 171.106964 L 336.879578 171.283142 L 336.177032 171.679169 L 335.650452 171.45932 L 334.950165 171.152649 L 333.281616 170.141083 L 332.313782 170.141083 L 331.263123 170.097717 L 330.164581 169.395172 L 329.155304 168.694641 L 326.566864 168.607727 L 324.854858 168.12265 L 322.355682 167.992157 L 321.167999 168.2117 L 320.902496 168.651184 L 320.202209 169.395172 L 319.279816 170.317352 L 318.357666 170.539124 L 317.744263 170.843872 L 316.821869 170.843872 L 315.858307 170.800201 L 315.638672 170.273895 L 315.508148 169.351501 L 314.761963 168.342285 L 314.189972 167.376404 L 314.498688 166.10614 L 314.672882 165.403656 L 313.224152 162.506165 L 313.004303 161.451263 L 312.963104 160.267853 L 312.171265 159.258636 L 310.198425 158.819153 L 308.527863 158.949646 L 306.378632 158.20575 L 303.570526 158.20575 L 301.902191 158.601776 L 301.464935 158.993347 L 300.366394 159.171509 L 299.093872 159.084625 L 296.901184 158.642975 L 296.109558 158.601776 L 295.365631 158.819153 L 294.48465 158.601776 L 293.651611 158.162292 L 292.15921 158.073181 L 291.106537 157.809937 L 290.05368 156.537415 L 288.252594 155.660919 L 286.19043 153.946686 L 285.004974 153.159302 L 281.975037 151.580048 L 281.011475 150.701324 L 277.45694 149.513672 L 275.438477 148.373871 L 273.026154 148.504456 L 272.147461 149.296051 L 271.531799 149.561584 L 270.48114 149.778992 L 269.950317 149.60495 L 267.583679 148.769745 L 265.871918 148.52829 L 263.851227 147.847351 L 262.491608 148.373871 L 261.527985 148.460754 L 260.4729 147.803894 L 259.070068 148.023529 L 257.401489 148.460754 L 254.723907 148.112823 L 252.53125 147.760468 L 250.817245 147.234161 L 248.93129 146.70755 L 247.528229 146.224701 L 246.473328 145.915955 L 245.550949 146.224701 L 244.805008 146.925171 L 243.75209 147.540833 L 243.09523 148.023529 L 242.481812 148.460754 L 241.777054 148.900238 L 241.074509 149.339722 L 239.405945 149.735535 L 237.16983 150.129333 L 234.668472 150.701324 L 231.90155 151.358185 L 230.544174 152.411072 L 230.104935 152.937439 L 229.269653 154.212219 L 228.569138 154.47522 L 227.907791 155.178009 L 227.338013 156.011047 L 226.857361 156.537415 L 226.724594 157.196533 L 226.594055 157.94043 L 226.594055 158.775726 L 226.372238 159.38913 L 225.980637 159.87207 L 225.582596 160.35498 L 224.97142 160.881287 L 224.266632 161.451263 L 223.696655 161.803711 L 223.126633 162.329987 L 222.513458 162.900055 L 221.895554 163.469788 L 221.282135 164.392212 L 220.581818 164.875061 L 219.922714 165.444855 L 219.263641 165.884277 L 218.210739 166.5 L 217.638718 166.763 L 217.244919 167.202484 L 217.114395 167.552673 L 216.892563 168.12265 L 216.67514 168.781769 L 216.542419 169.57135 L 216.500977 170.404388 L 216.366196 171.326813 L 216.235703 172.205475 L 216.192261 173.388702 L 216.059479 174.137085 L 216.059479 174.837402 L 215.970398 175.542206 L 215.491714 175.846863 L 214.458405 176.112183 L 213.60376 176.460114 L 212.899017 176.899536 L 212.15506 177.602081 L 211.715576 178.2612 L 211.365463 178.961731 L 211.365463 179.314087 L 211.365463 179.620758 L 211.62648 179.970947 L 211.8461 180.279877 L 212.06572 180.543182 L 212.329041 180.806244 L 212.729279 181.245728 L 213.120865 181.64151 L 213.690643 182.254944 L 213.99736 182.955505 L 214.042999 183.394745 L 213.953918 183.877594 L 213.647202 184.493256 L 212.81192 185.459106 L 212.285583 186.555389 L 212.416122 186.601074 L 212.505203 186.905579 L 212.81192 187.388489 L 213.120865 187.784302 L 213.425339 188.180328 L 213.381699 188.576141 L 213.164276 189.672485 L 212.637939 190.505524 L 212.329041 191.251678 L 212.06572 191.995667 L 211.8461 192.5242 L 211.759018 192.830963 L 211.539398 193.490082 L 211.319778 194.235992 L 211.276123 194.76236 L 211.18924 195.641235 L 210.706345 197.307404 L 209.827423 198.712677 L 209.697083 199.589172 L 209.74054 201.21405 L 210.136337 202.749878 L 209.871063 203.541718 L 209.610001 204.637817 L 209.653442 205.647278 L 209.477264 206.130219 L 209.170563 206.699951 L 208.422363 207.095978 L 207.591324 207.400513 L 206.930206 207.929047 L 206.273102 208.322662 L 205.613998 208.849213 L 204.911484 209.37558 L 204.1241 210.034607 L 203.288803 210.210785 L 202.323029 210.430481 L 201.226685 210.430481 L 200.128326 210.780853 L 198.990585 210.911102 L 198.198746 210.82428 L 196.180222 210.737152 L 194.864288 210.737152 L 193.106628 211.176636 L 191.132675 211.659576 L 188.631058 212.055359 L 185.778412 213.064575 L 183.80426 213.808594 L 182.267548 214.687469 L 180.643784 215.039917 L 178.580505 215.479156 L 177.263443 216.003448 L 174.411682 216.836487 L 173.797333 215.916321 L 172.918411 214.335114 L 171.077225 213.897858 L 170.110336 212.975464 L 168.793243 211.920563 L 168.135254 210.780853 L 166.995499 210.210785 L 165.019104 209.068817 L 163.967514 208.409729 L 163.045151 208.496857 L 162.123016 207.972473 L 160.939575 207.53299 L 159.402893 206.917572 L 157.208008 206.040833 L 155.715851 205.251251 L 154.707718 204.681519 L 154.136612 204.329071 L 152.819519 204.198578 L 152.118134 203.802551 L 151.282852 203.495789 L 150.404999 202.882599 L 149.308685 202.310394 L 148.255981 201.873138 L 147.245651 201.127167 L 145.666412 199.589172 L 144.174011 198.886597 L 142.9897 198.273193 L 141.277924 197.263977 L 139.960632 196.341553 L 138.776321 195.288879 L 137.897629 194.409912 L 136.888367 193.183319 L 136.187866 192.917847 L 135.35257 193.139648 L 134.607498 192.917847 L 133.552597 192.480621 L 132.543335 191.51474 L 131.445908 190.022614 L 130.394119 188.441406 L 129.691574 187.477539 L 129.296646 187.477539 L 129.033585 187.740845 L 128.813965 187.917023 L 128.549576 188.180328 L 128.198303 188.354279 L 127.628326 188.354279 L 126.88237 188.397705 L 126.444008 188.310822 L 126.004524 187.345062 L 125.82946 186.468323 L 126.137291 185.765778 L 126.355797 185.633057 L 126.048203 185.065308 L 126.179619 184.449799 L 126.530891 184.097443 L 126.969215 183.964722 L 127.0149 183.573151 L 126.400558 182.868378 L 125.653282 182.167816 L 125.039825 181.465332 L 124.688591 180.632294 L 124.688591 179.533722 L 124.863647 177.515198 L 125.039825 176.942963 Z"/>
    </g>
</svg>
